<mxfile host="app.diagrams.net" modified="2023-04-20T15:56:40.967Z" agent="Mozilla/5.0 (Windows NT 10.0; Win64; x64) AppleWebKit/537.36 (KHTML, like Gecko) Chrome/112.0.0.0 Safari/537.36" etag="cOeEZBvsWSHuFOesRmYP" version="21.1.8" type="github">
  <diagram name="第 1 页" id="pXnhynuYuL10zYPjrUvr">
    <mxGraphModel dx="2022" dy="663" grid="1" gridSize="10" guides="1" tooltips="1" connect="1" arrows="1" fold="1" page="1" pageScale="1" pageWidth="827" pageHeight="1169" math="0" shadow="0">
      <root>
        <mxCell id="0" />
        <mxCell id="1" parent="0" />
        <mxCell id="JzDECzEAMPXhw-EZGh1U-6" value="&lt;div style=&quot;background-color: rgb(255, 255, 255); color: rgb(8, 8, 8); font-size: 9.8pt;&quot;&gt;sharedInformerFactory&lt;/div&gt;" style="swimlane;fontStyle=0;childLayout=stackLayout;horizontal=1;startSize=26;fillColor=none;horizontalStack=0;resizeParent=1;resizeParentMax=0;resizeLast=0;collapsible=1;marginBottom=0;whiteSpace=wrap;html=1;fontFamily=Comic Sans MS;" vertex="1" parent="1">
          <mxGeometry x="-60" y="240" width="380" height="52" as="geometry" />
        </mxCell>
        <mxCell id="JzDECzEAMPXhw-EZGh1U-7" value="+&amp;nbsp;informers&lt;span style=&quot;background-color: initial;&quot;&gt;:&amp;nbsp;&lt;/span&gt;map&lt;span style=&quot;background-color: rgb(255, 255, 255); color: rgb(8, 8, 8); font-family: &amp;quot;JetBrains Mono&amp;quot;, monospace; font-size: 9.8pt;&quot;&gt;[&lt;/span&gt;&lt;span style=&quot;font-family: &amp;quot;JetBrains Mono&amp;quot;, monospace; font-size: 9.8pt; color: rgb(128, 89, 0);&quot;&gt;reflect&lt;/span&gt;&lt;span style=&quot;background-color: rgb(255, 255, 255); color: rgb(8, 8, 8); font-family: &amp;quot;JetBrains Mono&amp;quot;, monospace; font-size: 9.8pt;&quot;&gt;.&lt;/span&gt;&lt;span style=&quot;font-family: &amp;quot;JetBrains Mono&amp;quot;, monospace; font-size: 9.8pt; color: rgb(51, 110, 204);&quot;&gt;Type&lt;/span&gt;&lt;span style=&quot;background-color: rgb(255, 255, 255); color: rgb(8, 8, 8); font-family: &amp;quot;JetBrains Mono&amp;quot;, monospace; font-size: 9.8pt;&quot;&gt;]&lt;/span&gt;&lt;span style=&quot;font-family: &amp;quot;JetBrains Mono&amp;quot;, monospace; font-size: 9.8pt; color: rgb(128, 89, 0);&quot;&gt;cache&lt;/span&gt;&lt;span style=&quot;background-color: rgb(255, 255, 255); color: rgb(8, 8, 8); font-family: &amp;quot;JetBrains Mono&amp;quot;, monospace; font-size: 9.8pt;&quot;&gt;.&lt;/span&gt;&lt;span style=&quot;font-family: &amp;quot;JetBrains Mono&amp;quot;, monospace; font-size: 9.8pt; color: rgb(51, 110, 204);&quot;&gt;SharedIndexInformer&lt;/span&gt;" style="text;strokeColor=none;fillColor=none;align=left;verticalAlign=top;spacingLeft=4;spacingRight=4;overflow=hidden;rotatable=0;points=[[0,0.5],[1,0.5]];portConstraint=eastwest;whiteSpace=wrap;html=1;" vertex="1" parent="JzDECzEAMPXhw-EZGh1U-6">
          <mxGeometry y="26" width="380" height="26" as="geometry" />
        </mxCell>
        <mxCell id="JzDECzEAMPXhw-EZGh1U-10" value="sharedInformerFactory&lt;span style=&quot;background-color: rgb(255, 255, 255); color: rgb(8, 8, 8); font-size: 9.8pt;&quot;&gt;.&lt;/span&gt;&lt;span style=&quot;font-size: 9.8pt; color: rgb(54, 102, 107);&quot;&gt;Core&lt;/span&gt;&lt;span style=&quot;background-color: rgb(255, 255, 255); color: rgb(8, 8, 8); font-size: 9.8pt;&quot;&gt;().&lt;/span&gt;&lt;span style=&quot;font-size: 9.8pt; color: rgb(54, 102, 107);&quot;&gt;V1&lt;/span&gt;&lt;span style=&quot;background-color: rgb(255, 255, 255); color: rgb(8, 8, 8); font-size: 9.8pt;&quot;&gt;().&lt;/span&gt;&lt;span style=&quot;font-size: 9.8pt; color: rgb(54, 102, 107);&quot;&gt;&lt;b&gt;Services&lt;/b&gt;&lt;/span&gt;&lt;span style=&quot;background-color: rgb(255, 255, 255); color: rgb(8, 8, 8); font-size: 9.8pt;&quot;&gt;().&lt;/span&gt;&lt;span style=&quot;font-size: 9.8pt; color: rgb(54, 102, 107);&quot;&gt;Informer&lt;/span&gt;&lt;span style=&quot;background-color: rgb(255, 255, 255); color: rgb(8, 8, 8); font-size: 9.8pt;&quot;&gt;()&lt;/span&gt;" style="html=1;whiteSpace=wrap;fontFamily=Comic Sans MS;" vertex="1" parent="1">
          <mxGeometry x="520" y="290" width="360" height="30" as="geometry" />
        </mxCell>
        <mxCell id="JzDECzEAMPXhw-EZGh1U-11" value="sharedInformerFactory&lt;span style=&quot;background-color: rgb(255, 255, 255); color: rgb(8, 8, 8); font-size: 9.8pt;&quot;&gt;.&lt;/span&gt;&lt;span style=&quot;font-size: 9.8pt; color: rgb(54, 102, 107);&quot;&gt;Core&lt;/span&gt;&lt;span style=&quot;background-color: rgb(255, 255, 255); color: rgb(8, 8, 8); font-size: 9.8pt;&quot;&gt;().&lt;/span&gt;&lt;span style=&quot;font-size: 9.8pt; color: rgb(54, 102, 107);&quot;&gt;V1&lt;/span&gt;&lt;span style=&quot;background-color: rgb(255, 255, 255); color: rgb(8, 8, 8); font-size: 9.8pt;&quot;&gt;().&lt;/span&gt;&lt;b&gt;&lt;font color=&quot;#36666b&quot;&gt;Pods&lt;/font&gt;&lt;/b&gt;&lt;span style=&quot;background-color: rgb(255, 255, 255); color: rgb(8, 8, 8); font-size: 9.8pt;&quot;&gt;().&lt;/span&gt;&lt;span style=&quot;background-color: initial; font-size: 9.8pt; color: rgb(54, 102, 107);&quot;&gt;Informer&lt;/span&gt;&lt;span style=&quot;background-color: rgb(255, 255, 255); color: rgb(8, 8, 8); font-size: 9.8pt;&quot;&gt;()&lt;/span&gt;" style="html=1;whiteSpace=wrap;fontFamily=Comic Sans MS;" vertex="1" parent="1">
          <mxGeometry x="520" y="240" width="360" height="30" as="geometry" />
        </mxCell>
        <mxCell id="JzDECzEAMPXhw-EZGh1U-13" value="" style="endArrow=classic;html=1;rounded=0;exitX=0;exitY=0.5;exitDx=0;exitDy=0;entryX=0.998;entryY=0.338;entryDx=0;entryDy=0;entryPerimeter=0;" edge="1" parent="1" source="JzDECzEAMPXhw-EZGh1U-11" target="JzDECzEAMPXhw-EZGh1U-7">
          <mxGeometry width="50" height="50" relative="1" as="geometry">
            <mxPoint x="410" y="360" as="sourcePoint" />
            <mxPoint x="360" y="270" as="targetPoint" />
          </mxGeometry>
        </mxCell>
        <mxCell id="JzDECzEAMPXhw-EZGh1U-14" value="" style="endArrow=classic;html=1;rounded=0;exitX=0;exitY=0.5;exitDx=0;exitDy=0;entryX=1.001;entryY=0.736;entryDx=0;entryDy=0;entryPerimeter=0;" edge="1" parent="1" source="JzDECzEAMPXhw-EZGh1U-10" target="JzDECzEAMPXhw-EZGh1U-7">
          <mxGeometry width="50" height="50" relative="1" as="geometry">
            <mxPoint x="477" y="265" as="sourcePoint" />
            <mxPoint x="329" y="295" as="targetPoint" />
          </mxGeometry>
        </mxCell>
        <mxCell id="JzDECzEAMPXhw-EZGh1U-15" value="create and add informer" style="text;html=1;strokeColor=none;fillColor=none;align=center;verticalAlign=middle;whiteSpace=wrap;rounded=0;" vertex="1" parent="1">
          <mxGeometry x="370" y="262" width="150" height="30" as="geometry" />
        </mxCell>
        <mxCell id="JzDECzEAMPXhw-EZGh1U-84" value="" style="edgeStyle=orthogonalEdgeStyle;rounded=0;orthogonalLoop=1;jettySize=auto;html=1;entryX=-0.002;entryY=0.643;entryDx=0;entryDy=0;entryPerimeter=0;" edge="1" parent="1" source="JzDECzEAMPXhw-EZGh1U-16" target="JzDECzEAMPXhw-EZGh1U-35">
          <mxGeometry relative="1" as="geometry" />
        </mxCell>
        <mxCell id="JzDECzEAMPXhw-EZGh1U-16" value="sharedInformerFactory.Start() {&lt;br&gt;&lt;span style=&quot;&quot;&gt;	&lt;/span&gt;&lt;span style=&quot;white-space: pre;&quot;&gt;	&lt;/span&gt;for _, informer range informers {&lt;br&gt;&lt;span style=&quot;&quot;&gt;	&lt;/span&gt;&lt;span style=&quot;&quot;&gt;	&lt;/span&gt;&lt;span style=&quot;white-space: pre;&quot;&gt;	&lt;span style=&quot;white-space: pre;&quot;&gt;	&lt;/span&gt;g&lt;/span&gt;o informer.&lt;b&gt;Run&lt;/b&gt;(stopCh)&lt;br&gt;&lt;span style=&quot;&quot;&gt;	&lt;/span&gt;&lt;span style=&quot;white-space: pre;&quot;&gt;	&lt;/span&gt;}&lt;br&gt;}" style="html=1;whiteSpace=wrap;fontFamily=Comic Sans MS;align=left;" vertex="1" parent="1">
          <mxGeometry x="-70" y="660" width="230" height="80" as="geometry" />
        </mxCell>
        <mxCell id="JzDECzEAMPXhw-EZGh1U-23" value="" style="edgeStyle=orthogonalEdgeStyle;rounded=0;orthogonalLoop=1;jettySize=auto;html=1;" edge="1" parent="1" source="JzDECzEAMPXhw-EZGh1U-17" target="JzDECzEAMPXhw-EZGh1U-15">
          <mxGeometry relative="1" as="geometry" />
        </mxCell>
        <mxCell id="JzDECzEAMPXhw-EZGh1U-17" value="&lt;div style=&quot;background-color: rgb(255, 255, 255); color: rgb(8, 8, 8); font-size: 9.8pt;&quot;&gt;&lt;pre style=&quot;font-size: 9.8pt;&quot;&gt;&lt;font face=&quot;Comic Sans MS&quot;&gt;sharedIndexInformer&lt;/font&gt;&lt;/pre&gt;&lt;/div&gt;" style="swimlane;fontStyle=0;childLayout=stackLayout;horizontal=1;startSize=26;fillColor=none;horizontalStack=0;resizeParent=1;resizeParentMax=0;resizeLast=0;collapsible=1;marginBottom=0;whiteSpace=wrap;html=1;fontFamily=Comic Sans MS;" vertex="1" parent="1">
          <mxGeometry x="287" y="380" width="316" height="182" as="geometry" />
        </mxCell>
        <mxCell id="JzDECzEAMPXhw-EZGh1U-18" value="+&amp;nbsp;processor" style="text;strokeColor=none;fillColor=none;align=left;verticalAlign=top;spacingLeft=4;spacingRight=4;overflow=hidden;rotatable=0;points=[[0,0.5],[1,0.5]];portConstraint=eastwest;whiteSpace=wrap;html=1;fontFamily=Comic Sans MS;" vertex="1" parent="JzDECzEAMPXhw-EZGh1U-17">
          <mxGeometry y="26" width="316" height="26" as="geometry" />
        </mxCell>
        <mxCell id="JzDECzEAMPXhw-EZGh1U-25" value="+ controller" style="text;strokeColor=none;fillColor=none;align=left;verticalAlign=top;spacingLeft=4;spacingRight=4;overflow=hidden;rotatable=0;points=[[0,0.5],[1,0.5]];portConstraint=eastwest;whiteSpace=wrap;html=1;fontFamily=Comic Sans MS;" vertex="1" parent="JzDECzEAMPXhw-EZGh1U-17">
          <mxGeometry y="52" width="316" height="26" as="geometry" />
        </mxCell>
        <mxCell id="JzDECzEAMPXhw-EZGh1U-19" value="+&amp;nbsp;&lt;b&gt;indexer&amp;nbsp; &lt;/b&gt;// cache" style="text;strokeColor=none;fillColor=none;align=left;verticalAlign=top;spacingLeft=4;spacingRight=4;overflow=hidden;rotatable=0;points=[[0,0.5],[1,0.5]];portConstraint=eastwest;whiteSpace=wrap;html=1;fontFamily=Comic Sans MS;" vertex="1" parent="JzDECzEAMPXhw-EZGh1U-17">
          <mxGeometry y="78" width="316" height="26" as="geometry" />
        </mxCell>
        <mxCell id="JzDECzEAMPXhw-EZGh1U-20" value="+&amp;nbsp;&lt;font style=&quot;&quot; face=&quot;Comic Sans MS&quot;&gt;&lt;b&gt;listerWatcher &lt;/b&gt;// object list and watch function&lt;/font&gt;" style="text;strokeColor=none;fillColor=none;align=left;verticalAlign=top;spacingLeft=4;spacingRight=4;overflow=hidden;rotatable=0;points=[[0,0.5],[1,0.5]];portConstraint=eastwest;whiteSpace=wrap;html=1;" vertex="1" parent="JzDECzEAMPXhw-EZGh1U-17">
          <mxGeometry y="104" width="316" height="26" as="geometry" />
        </mxCell>
        <mxCell id="JzDECzEAMPXhw-EZGh1U-21" value="+&amp;nbsp;objectType" style="text;strokeColor=none;fillColor=none;align=left;verticalAlign=top;spacingLeft=4;spacingRight=4;overflow=hidden;rotatable=0;points=[[0,0.5],[1,0.5]];portConstraint=eastwest;whiteSpace=wrap;html=1;" vertex="1" parent="JzDECzEAMPXhw-EZGh1U-17">
          <mxGeometry y="130" width="316" height="26" as="geometry" />
        </mxCell>
        <mxCell id="JzDECzEAMPXhw-EZGh1U-22" value="+ ..." style="text;strokeColor=none;fillColor=none;align=left;verticalAlign=top;spacingLeft=4;spacingRight=4;overflow=hidden;rotatable=0;points=[[0,0.5],[1,0.5]];portConstraint=eastwest;whiteSpace=wrap;html=1;" vertex="1" parent="JzDECzEAMPXhw-EZGh1U-17">
          <mxGeometry y="156" width="316" height="26" as="geometry" />
        </mxCell>
        <mxCell id="JzDECzEAMPXhw-EZGh1U-26" value="create factory" style="text;html=1;strokeColor=none;fillColor=none;align=center;verticalAlign=middle;whiteSpace=wrap;rounded=0;fontStyle=0;fontColor=#000000;" vertex="1" parent="1">
          <mxGeometry x="-90" y="192" width="150" height="30" as="geometry" />
        </mxCell>
        <mxCell id="JzDECzEAMPXhw-EZGh1U-27" value="" style="shape=image;html=1;verticalAlign=top;verticalLabelPosition=bottom;labelBackgroundColor=#ffffff;imageAspect=0;aspect=fixed;image=https://cdn0.iconfinder.com/data/icons/phosphor-bold-vol-3-1/256/number-circle-one-duotone-128.png" vertex="1" parent="1">
          <mxGeometry x="-80" y="194" width="26" height="26" as="geometry" />
        </mxCell>
        <mxCell id="JzDECzEAMPXhw-EZGh1U-31" value="" style="shape=image;html=1;verticalAlign=top;verticalLabelPosition=bottom;labelBackgroundColor=#ffffff;imageAspect=0;aspect=fixed;image=https://cdn0.iconfinder.com/data/icons/phosphor-bold-vol-3-1/256/number-circle-two-duotone-128.png" vertex="1" parent="1">
          <mxGeometry x="350" y="265" width="24" height="24" as="geometry" />
        </mxCell>
        <mxCell id="JzDECzEAMPXhw-EZGh1U-32" value="factory start" style="text;html=1;strokeColor=none;fillColor=none;align=center;verticalAlign=middle;whiteSpace=wrap;rounded=0;fontStyle=0;fontColor=#000000;" vertex="1" parent="1">
          <mxGeometry x="-90" y="610" width="150" height="30" as="geometry" />
        </mxCell>
        <mxCell id="JzDECzEAMPXhw-EZGh1U-34" value="" style="shape=image;html=1;verticalAlign=top;verticalLabelPosition=bottom;labelBackgroundColor=#ffffff;imageAspect=0;aspect=fixed;image=https://cdn0.iconfinder.com/data/icons/phosphor-regular-vol-3/256/number-circle-three-128.png" vertex="1" parent="1">
          <mxGeometry x="-80" y="610" width="30" height="30" as="geometry" />
        </mxCell>
        <mxCell id="JzDECzEAMPXhw-EZGh1U-51" value="" style="edgeStyle=orthogonalEdgeStyle;rounded=0;orthogonalLoop=1;jettySize=auto;html=1;entryX=0.006;entryY=0.146;entryDx=0;entryDy=0;entryPerimeter=0;dashed=1;" edge="1" parent="1" source="JzDECzEAMPXhw-EZGh1U-35" target="JzDECzEAMPXhw-EZGh1U-43">
          <mxGeometry relative="1" as="geometry">
            <mxPoint x="440" y="695" as="targetPoint" />
          </mxGeometry>
        </mxCell>
        <mxCell id="JzDECzEAMPXhw-EZGh1U-40" value="" style="edgeStyle=orthogonalEdgeStyle;rounded=0;orthogonalLoop=1;jettySize=auto;html=1;dashed=1;" edge="1" parent="1" source="JzDECzEAMPXhw-EZGh1U-38" target="JzDECzEAMPXhw-EZGh1U-39">
          <mxGeometry relative="1" as="geometry" />
        </mxCell>
        <mxCell id="JzDECzEAMPXhw-EZGh1U-43" value="&lt;div style=&quot;background-color: rgb(255, 255, 255); color: rgb(8, 8, 8); font-size: 9.8pt;&quot;&gt;&lt;div style=&quot;font-size: 9.8pt;&quot;&gt;DeltaFIFO&lt;br&gt;&lt;/div&gt;&lt;/div&gt;" style="swimlane;fontStyle=0;childLayout=stackLayout;horizontal=1;startSize=26;fillColor=none;horizontalStack=0;resizeParent=1;resizeParentMax=0;resizeLast=0;collapsible=1;marginBottom=0;whiteSpace=wrap;html=1;fontFamily=Comic Sans MS;" vertex="1" parent="1">
          <mxGeometry x="770" y="680" width="190" height="104" as="geometry" />
        </mxCell>
        <mxCell id="JzDECzEAMPXhw-EZGh1U-44" value="+&amp;nbsp;items &lt;span style=&quot;font-family: &amp;quot;JetBrains Mono&amp;quot;, monospace; font-size: 9.8pt; color: rgb(0, 51, 179);&quot;&gt;map&lt;/span&gt;&lt;span style=&quot;background-color: rgb(255, 255, 255); color: rgb(8, 8, 8); font-family: &amp;quot;JetBrains Mono&amp;quot;, monospace; font-size: 9.8pt;&quot;&gt;[&lt;/span&gt;&lt;span style=&quot;font-family: &amp;quot;JetBrains Mono&amp;quot;, monospace; font-size: 9.8pt; color: rgb(0, 47, 166);&quot;&gt;string&lt;/span&gt;&lt;span style=&quot;background-color: rgb(255, 255, 255); color: rgb(8, 8, 8); font-family: &amp;quot;JetBrains Mono&amp;quot;, monospace; font-size: 9.8pt;&quot;&gt;]&lt;/span&gt;&lt;span style=&quot;font-family: &amp;quot;JetBrains Mono&amp;quot;, monospace; font-size: 9.8pt; color: rgb(51, 110, 204);&quot;&gt;Deltas&lt;/span&gt;" style="text;strokeColor=none;fillColor=none;align=left;verticalAlign=top;spacingLeft=4;spacingRight=4;overflow=hidden;rotatable=0;points=[[0,0.5],[1,0.5]];portConstraint=eastwest;whiteSpace=wrap;html=1;fontFamily=Comic Sans MS;" vertex="1" parent="JzDECzEAMPXhw-EZGh1U-43">
          <mxGeometry y="26" width="190" height="26" as="geometry" />
        </mxCell>
        <mxCell id="JzDECzEAMPXhw-EZGh1U-45" value="+&amp;nbsp;queue &lt;span style=&quot;background-color: rgb(255, 255, 255); color: rgb(8, 8, 8); font-family: &amp;quot;JetBrains Mono&amp;quot;, monospace; font-size: 9.8pt;&quot;&gt;[]&lt;/span&gt;&lt;span style=&quot;font-family: &amp;quot;JetBrains Mono&amp;quot;, monospace; font-size: 9.8pt; color: rgb(0, 47, 166);&quot;&gt;string&lt;/span&gt;" style="text;strokeColor=none;fillColor=none;align=left;verticalAlign=top;spacingLeft=4;spacingRight=4;overflow=hidden;rotatable=0;points=[[0,0.5],[1,0.5]];portConstraint=eastwest;whiteSpace=wrap;html=1;fontFamily=Comic Sans MS;" vertex="1" parent="JzDECzEAMPXhw-EZGh1U-43">
          <mxGeometry y="52" width="190" height="26" as="geometry" />
        </mxCell>
        <mxCell id="JzDECzEAMPXhw-EZGh1U-49" value="+ ..." style="text;strokeColor=none;fillColor=none;align=left;verticalAlign=top;spacingLeft=4;spacingRight=4;overflow=hidden;rotatable=0;points=[[0,0.5],[1,0.5]];portConstraint=eastwest;whiteSpace=wrap;html=1;" vertex="1" parent="JzDECzEAMPXhw-EZGh1U-43">
          <mxGeometry y="78" width="190" height="26" as="geometry" />
        </mxCell>
        <mxCell id="JzDECzEAMPXhw-EZGh1U-52" value="&lt;div style=&quot;background-color: rgb(255, 255, 255); color: rgb(8, 8, 8); font-size: 9.8pt;&quot;&gt;&lt;div style=&quot;font-size: 9.8pt;&quot;&gt;Reflector&lt;br&gt;&lt;/div&gt;&lt;/div&gt;" style="swimlane;fontStyle=0;childLayout=stackLayout;horizontal=1;startSize=26;fillColor=none;horizontalStack=0;resizeParent=1;resizeParentMax=0;resizeLast=0;collapsible=1;marginBottom=0;whiteSpace=wrap;html=1;fontFamily=Comic Sans MS;" vertex="1" parent="1">
          <mxGeometry x="550" y="760" width="160" height="104" as="geometry" />
        </mxCell>
        <mxCell id="JzDECzEAMPXhw-EZGh1U-53" value="+&amp;nbsp;listerWatcher&amp;nbsp;" style="text;strokeColor=none;fillColor=none;align=left;verticalAlign=top;spacingLeft=4;spacingRight=4;overflow=hidden;rotatable=0;points=[[0,0.5],[1,0.5]];portConstraint=eastwest;whiteSpace=wrap;html=1;fontFamily=Comic Sans MS;" vertex="1" parent="JzDECzEAMPXhw-EZGh1U-52">
          <mxGeometry y="26" width="160" height="26" as="geometry" />
        </mxCell>
        <mxCell id="JzDECzEAMPXhw-EZGh1U-56" value="+&amp;nbsp;store" style="text;strokeColor=none;fillColor=none;align=left;verticalAlign=top;spacingLeft=4;spacingRight=4;overflow=hidden;rotatable=0;points=[[0,0.5],[1,0.5]];portConstraint=eastwest;whiteSpace=wrap;html=1;fontFamily=Comic Sans MS;" vertex="1" parent="JzDECzEAMPXhw-EZGh1U-52">
          <mxGeometry y="52" width="160" height="26" as="geometry" />
        </mxCell>
        <mxCell id="JzDECzEAMPXhw-EZGh1U-55" value="+ ..." style="text;strokeColor=none;fillColor=none;align=left;verticalAlign=top;spacingLeft=4;spacingRight=4;overflow=hidden;rotatable=0;points=[[0,0.5],[1,0.5]];portConstraint=eastwest;whiteSpace=wrap;html=1;" vertex="1" parent="JzDECzEAMPXhw-EZGh1U-52">
          <mxGeometry y="78" width="160" height="26" as="geometry" />
        </mxCell>
        <mxCell id="JzDECzEAMPXhw-EZGh1U-58" value="" style="edgeStyle=orthogonalEdgeStyle;rounded=0;orthogonalLoop=1;jettySize=auto;html=1;entryX=0;entryY=0.25;entryDx=0;entryDy=0;exitX=1;exitY=0.5;exitDx=0;exitDy=0;" edge="1" parent="1" source="JzDECzEAMPXhw-EZGh1U-56" target="JzDECzEAMPXhw-EZGh1U-43">
          <mxGeometry relative="1" as="geometry">
            <mxPoint x="370" y="705" as="sourcePoint" />
            <mxPoint x="661" y="705" as="targetPoint" />
            <Array as="points">
              <mxPoint x="740" y="825" />
              <mxPoint x="740" y="706" />
            </Array>
          </mxGeometry>
        </mxCell>
        <mxCell id="JzDECzEAMPXhw-EZGh1U-59" value="" style="group" vertex="1" connectable="0" parent="1">
          <mxGeometry x="380" y="950" width="120" height="90" as="geometry" />
        </mxCell>
        <mxCell id="JzDECzEAMPXhw-EZGh1U-39" value="&lt;div style=&quot;background-color: rgb(255, 255, 255); color: rgb(8, 8, 8); font-size: 12px;&quot;&gt;4.1. create Reflector&lt;/div&gt;" style="html=1;whiteSpace=wrap;fontFamily=Comic Sans MS;align=left;fontSize=12;" vertex="1" parent="JzDECzEAMPXhw-EZGh1U-59">
          <mxGeometry width="120" height="30" as="geometry" />
        </mxCell>
        <mxCell id="JzDECzEAMPXhw-EZGh1U-41" value="&lt;div style=&quot;background-color: rgb(255, 255, 255); color: rgb(8, 8, 8); font-size: 12px;&quot;&gt;4.2. Reflector run&lt;/div&gt;" style="html=1;whiteSpace=wrap;fontFamily=Comic Sans MS;align=left;fontSize=12;" vertex="1" parent="JzDECzEAMPXhw-EZGh1U-59">
          <mxGeometry y="30" width="120" height="30" as="geometry" />
        </mxCell>
        <mxCell id="JzDECzEAMPXhw-EZGh1U-42" value="&lt;div style=&quot;background-color: rgb(255, 255, 255); color: rgb(8, 8, 8); font-size: 12px;&quot;&gt;4.3. processLoop&lt;/div&gt;" style="html=1;whiteSpace=wrap;fontFamily=Comic Sans MS;align=left;fontSize=12;" vertex="1" parent="JzDECzEAMPXhw-EZGh1U-59">
          <mxGeometry y="60" width="120" height="30" as="geometry" />
        </mxCell>
        <mxCell id="JzDECzEAMPXhw-EZGh1U-60" value="" style="edgeStyle=orthogonalEdgeStyle;rounded=0;orthogonalLoop=1;jettySize=auto;html=1;entryX=0.006;entryY=0.146;entryDx=0;entryDy=0;entryPerimeter=0;dashed=1;" edge="1" parent="1" source="JzDECzEAMPXhw-EZGh1U-39" target="JzDECzEAMPXhw-EZGh1U-52">
          <mxGeometry relative="1" as="geometry" />
        </mxCell>
        <mxCell id="JzDECzEAMPXhw-EZGh1U-62" value="" style="edgeStyle=orthogonalEdgeStyle;rounded=0;orthogonalLoop=1;jettySize=auto;html=1;entryX=1.001;entryY=0.093;entryDx=0;entryDy=0;dashed=1;entryPerimeter=0;exitX=1;exitY=0.5;exitDx=0;exitDy=0;" edge="1" parent="1" source="JzDECzEAMPXhw-EZGh1U-41" target="JzDECzEAMPXhw-EZGh1U-43">
          <mxGeometry relative="1" as="geometry">
            <mxPoint x="740" y="1004.9999999999998" as="targetPoint" />
            <Array as="points">
              <mxPoint x="1010" y="995" />
              <mxPoint x="1010" y="690" />
              <mxPoint x="930" y="690" />
            </Array>
          </mxGeometry>
        </mxCell>
        <mxCell id="JzDECzEAMPXhw-EZGh1U-63" value="call ListAndWatch and store to DeltaFIFO" style="text;html=1;strokeColor=none;fillColor=none;align=center;verticalAlign=middle;whiteSpace=wrap;rounded=0;fontStyle=0;fontColor=#000000;" vertex="1" parent="1">
          <mxGeometry x="610" y="970" width="260" height="30" as="geometry" />
        </mxCell>
        <mxCell id="JzDECzEAMPXhw-EZGh1U-64" value="" style="edgeStyle=orthogonalEdgeStyle;rounded=0;orthogonalLoop=1;jettySize=auto;html=1;entryX=1;entryY=0;entryDx=0;entryDy=0;dashed=1;exitX=1;exitY=0.5;exitDx=0;exitDy=0;endArrow=none;endFill=0;startArrow=classic;startFill=1;" edge="1" parent="1" source="JzDECzEAMPXhw-EZGh1U-42" target="JzDECzEAMPXhw-EZGh1U-43">
          <mxGeometry relative="1" as="geometry">
            <mxPoint x="510" y="1005" as="sourcePoint" />
            <mxPoint x="940" y="700" as="targetPoint" />
            <Array as="points">
              <mxPoint x="1040" y="1025" />
              <mxPoint x="1040" y="680" />
            </Array>
          </mxGeometry>
        </mxCell>
        <mxCell id="JzDECzEAMPXhw-EZGh1U-65" value="pop from DeltaFIFO and call HandleDeltas" style="text;html=1;strokeColor=none;fillColor=none;align=center;verticalAlign=middle;whiteSpace=wrap;rounded=0;fontStyle=0;fontColor=#000000;" vertex="1" parent="1">
          <mxGeometry x="610" y="1020" width="260" height="30" as="geometry" />
        </mxCell>
        <mxCell id="JzDECzEAMPXhw-EZGh1U-75" value="" style="edgeStyle=orthogonalEdgeStyle;rounded=0;orthogonalLoop=1;jettySize=auto;html=1;entryX=-0.006;entryY=0.136;entryDx=0;entryDy=0;entryPerimeter=0;" edge="1" parent="1" source="JzDECzEAMPXhw-EZGh1U-66" target="JzDECzEAMPXhw-EZGh1U-70">
          <mxGeometry relative="1" as="geometry">
            <mxPoint x="740" y="1104.9999999999998" as="targetPoint" />
          </mxGeometry>
        </mxCell>
        <mxCell id="JzDECzEAMPXhw-EZGh1U-82" value="" style="edgeStyle=orthogonalEdgeStyle;rounded=0;orthogonalLoop=1;jettySize=auto;html=1;entryX=-0.005;entryY=0.132;entryDx=0;entryDy=0;entryPerimeter=0;" edge="1" parent="1" source="JzDECzEAMPXhw-EZGh1U-66" target="JzDECzEAMPXhw-EZGh1U-77">
          <mxGeometry relative="1" as="geometry">
            <mxPoint x="600" y="1199.9999999999998" as="targetPoint" />
            <Array as="points">
              <mxPoint x="800" y="1120" />
              <mxPoint x="800" y="1234" />
            </Array>
          </mxGeometry>
        </mxCell>
        <mxCell id="JzDECzEAMPXhw-EZGh1U-66" value="&lt;div style=&quot;background-color: rgb(255, 255, 255); color: rgb(8, 8, 8); font-size: 12px;&quot;&gt;&lt;div style=&quot;font-size: 9.8pt;&quot;&gt;HandleDeltas&lt;/div&gt;&lt;/div&gt;" style="html=1;whiteSpace=wrap;fontFamily=Comic Sans MS;align=center;fontSize=12;" vertex="1" parent="1">
          <mxGeometry x="540" y="1090" width="120" height="30" as="geometry" />
        </mxCell>
        <mxCell id="JzDECzEAMPXhw-EZGh1U-67" value="" style="edgeStyle=orthogonalEdgeStyle;rounded=0;orthogonalLoop=1;jettySize=auto;html=1;exitX=1;exitY=1;exitDx=0;exitDy=0;" edge="1" parent="1" source="JzDECzEAMPXhw-EZGh1U-42" target="JzDECzEAMPXhw-EZGh1U-66">
          <mxGeometry relative="1" as="geometry">
            <Array as="points">
              <mxPoint x="600" y="1040" />
            </Array>
          </mxGeometry>
        </mxCell>
        <mxCell id="JzDECzEAMPXhw-EZGh1U-70" value="&lt;div style=&quot;background-color: rgb(255, 255, 255); color: rgb(8, 8, 8); font-size: 9.8pt;&quot;&gt;&lt;div style=&quot;font-size: 9.8pt;&quot;&gt;&lt;div style=&quot;font-size: 9.8pt;&quot;&gt;cache（Indexer）&lt;/div&gt;&lt;/div&gt;&lt;/div&gt;" style="swimlane;fontStyle=0;childLayout=stackLayout;horizontal=1;startSize=26;fillColor=none;horizontalStack=0;resizeParent=1;resizeParentMax=0;resizeLast=0;collapsible=1;marginBottom=0;whiteSpace=wrap;html=1;fontFamily=Comic Sans MS;" vertex="1" parent="1">
          <mxGeometry x="827" y="1090" width="210" height="104" as="geometry" />
        </mxCell>
        <mxCell id="JzDECzEAMPXhw-EZGh1U-71" value="+&amp;nbsp;cacheStorage &lt;span style=&quot;font-family: &amp;quot;JetBrains Mono&amp;quot;, monospace; font-size: 9.8pt; color: rgb(51, 110, 204);&quot;&gt;ThreadSafeStore&lt;/span&gt;" style="text;strokeColor=none;fillColor=none;align=left;verticalAlign=top;spacingLeft=4;spacingRight=4;overflow=hidden;rotatable=0;points=[[0,0.5],[1,0.5]];portConstraint=eastwest;whiteSpace=wrap;html=1;fontFamily=Comic Sans MS;" vertex="1" parent="JzDECzEAMPXhw-EZGh1U-70">
          <mxGeometry y="26" width="210" height="26" as="geometry" />
        </mxCell>
        <mxCell id="JzDECzEAMPXhw-EZGh1U-72" value="+&amp;nbsp;keyFunc &lt;span style=&quot;font-family: &amp;quot;JetBrains Mono&amp;quot;, monospace; font-size: 9.8pt; color: rgb(51, 110, 204);&quot;&gt;KeyFunc&lt;/span&gt;" style="text;strokeColor=none;fillColor=none;align=left;verticalAlign=top;spacingLeft=4;spacingRight=4;overflow=hidden;rotatable=0;points=[[0,0.5],[1,0.5]];portConstraint=eastwest;whiteSpace=wrap;html=1;fontFamily=Comic Sans MS;" vertex="1" parent="JzDECzEAMPXhw-EZGh1U-70">
          <mxGeometry y="52" width="210" height="26" as="geometry" />
        </mxCell>
        <mxCell id="JzDECzEAMPXhw-EZGh1U-73" value="+ ..." style="text;strokeColor=none;fillColor=none;align=left;verticalAlign=top;spacingLeft=4;spacingRight=4;overflow=hidden;rotatable=0;points=[[0,0.5],[1,0.5]];portConstraint=eastwest;whiteSpace=wrap;html=1;" vertex="1" parent="JzDECzEAMPXhw-EZGh1U-70">
          <mxGeometry y="78" width="210" height="26" as="geometry" />
        </mxCell>
        <mxCell id="JzDECzEAMPXhw-EZGh1U-76" value="update local cache" style="text;html=1;strokeColor=none;fillColor=none;align=center;verticalAlign=middle;whiteSpace=wrap;rounded=0;fontStyle=0;fontColor=#000000;" vertex="1" parent="1">
          <mxGeometry x="680" y="1080" width="120" height="30" as="geometry" />
        </mxCell>
        <mxCell id="JzDECzEAMPXhw-EZGh1U-77" value="&lt;div style=&quot;background-color: rgb(255, 255, 255); color: rgb(8, 8, 8); font-size: 9.8pt;&quot;&gt;&lt;div style=&quot;font-size: 9.8pt;&quot;&gt;&lt;div style=&quot;font-size: 9.8pt;&quot;&gt;&lt;div style=&quot;font-size: 9.8pt;&quot;&gt;ResourceEventHandlerFuncs&lt;/div&gt;&lt;/div&gt;&lt;/div&gt;&lt;/div&gt;" style="swimlane;fontStyle=0;childLayout=stackLayout;horizontal=1;startSize=26;fillColor=none;horizontalStack=0;resizeParent=1;resizeParentMax=0;resizeLast=0;collapsible=1;marginBottom=0;whiteSpace=wrap;html=1;fontFamily=Comic Sans MS;" vertex="1" parent="1">
          <mxGeometry x="827" y="1220" width="323" height="104" as="geometry" />
        </mxCell>
        <mxCell id="JzDECzEAMPXhw-EZGh1U-78" value="+&amp;nbsp;AddFunc    &lt;span style=&quot;font-family: &amp;quot;JetBrains Mono&amp;quot;, monospace; font-size: 9.8pt; color: rgb(0, 51, 179);&quot;&gt;func&lt;/span&gt;&lt;span style=&quot;background-color: rgb(255, 255, 255); color: rgb(8, 8, 8); font-family: &amp;quot;JetBrains Mono&amp;quot;, monospace; font-size: 9.8pt;&quot;&gt;(&lt;/span&gt;&lt;span style=&quot;font-family: &amp;quot;JetBrains Mono&amp;quot;, monospace; font-size: 9.8pt;&quot;&gt;obj &lt;/span&gt;&lt;span style=&quot;font-family: &amp;quot;JetBrains Mono&amp;quot;, monospace; font-size: 9.8pt; color: rgb(0, 51, 179);&quot;&gt;interface&lt;/span&gt;&lt;span style=&quot;background-color: rgb(255, 255, 255); color: rgb(8, 8, 8); font-family: &amp;quot;JetBrains Mono&amp;quot;, monospace; font-size: 9.8pt;&quot;&gt;{})&lt;/span&gt;" style="text;strokeColor=none;fillColor=none;align=left;verticalAlign=top;spacingLeft=4;spacingRight=4;overflow=hidden;rotatable=0;points=[[0,0.5],[1,0.5]];portConstraint=eastwest;whiteSpace=wrap;html=1;fontFamily=Comic Sans MS;" vertex="1" parent="JzDECzEAMPXhw-EZGh1U-77">
          <mxGeometry y="26" width="323" height="26" as="geometry" />
        </mxCell>
        <mxCell id="JzDECzEAMPXhw-EZGh1U-79" value="+&amp;nbsp;UpdateFunc &lt;span style=&quot;font-family: &amp;quot;JetBrains Mono&amp;quot;, monospace; font-size: 9.8pt; color: rgb(0, 51, 179);&quot;&gt;func&lt;/span&gt;&lt;span style=&quot;background-color: rgb(255, 255, 255); color: rgb(8, 8, 8); font-family: &amp;quot;JetBrains Mono&amp;quot;, monospace; font-size: 9.8pt;&quot;&gt;(&lt;/span&gt;&lt;span style=&quot;font-family: &amp;quot;JetBrains Mono&amp;quot;, monospace; font-size: 9.8pt;&quot;&gt;oldObj&lt;/span&gt;&lt;span style=&quot;background-color: rgb(255, 255, 255); color: rgb(8, 8, 8); font-family: &amp;quot;JetBrains Mono&amp;quot;, monospace; font-size: 9.8pt;&quot;&gt;, &lt;/span&gt;&lt;span style=&quot;font-family: &amp;quot;JetBrains Mono&amp;quot;, monospace; font-size: 9.8pt;&quot;&gt;newObj &lt;/span&gt;&lt;span style=&quot;font-family: &amp;quot;JetBrains Mono&amp;quot;, monospace; font-size: 9.8pt; color: rgb(0, 51, 179);&quot;&gt;interface&lt;/span&gt;&lt;span style=&quot;background-color: rgb(255, 255, 255); color: rgb(8, 8, 8); font-family: &amp;quot;JetBrains Mono&amp;quot;, monospace; font-size: 9.8pt;&quot;&gt;{})&lt;/span&gt;" style="text;strokeColor=none;fillColor=none;align=left;verticalAlign=top;spacingLeft=4;spacingRight=4;overflow=hidden;rotatable=0;points=[[0,0.5],[1,0.5]];portConstraint=eastwest;whiteSpace=wrap;html=1;fontFamily=Comic Sans MS;" vertex="1" parent="JzDECzEAMPXhw-EZGh1U-77">
          <mxGeometry y="52" width="323" height="26" as="geometry" />
        </mxCell>
        <mxCell id="JzDECzEAMPXhw-EZGh1U-80" value="+&amp;nbsp;&lt;font face=&quot;Comic Sans MS&quot;&gt;DeleteFunc &lt;/font&gt;&lt;span style=&quot;font-family: &amp;quot;JetBrains Mono&amp;quot;, monospace; font-size: 9.8pt; color: rgb(0, 51, 179);&quot;&gt;func&lt;/span&gt;&lt;span style=&quot;background-color: rgb(255, 255, 255); color: rgb(8, 8, 8); font-family: &amp;quot;JetBrains Mono&amp;quot;, monospace; font-size: 9.8pt;&quot;&gt;(&lt;/span&gt;&lt;span style=&quot;font-family: &amp;quot;JetBrains Mono&amp;quot;, monospace; font-size: 9.8pt;&quot;&gt;obj &lt;/span&gt;&lt;span style=&quot;font-family: &amp;quot;JetBrains Mono&amp;quot;, monospace; font-size: 9.8pt; color: rgb(0, 51, 179);&quot;&gt;interface&lt;/span&gt;&lt;span style=&quot;background-color: rgb(255, 255, 255); color: rgb(8, 8, 8); font-family: &amp;quot;JetBrains Mono&amp;quot;, monospace; font-size: 9.8pt;&quot;&gt;{})&lt;/span&gt;" style="text;strokeColor=none;fillColor=none;align=left;verticalAlign=top;spacingLeft=4;spacingRight=4;overflow=hidden;rotatable=0;points=[[0,0.5],[1,0.5]];portConstraint=eastwest;whiteSpace=wrap;html=1;" vertex="1" parent="JzDECzEAMPXhw-EZGh1U-77">
          <mxGeometry y="78" width="323" height="26" as="geometry" />
        </mxCell>
        <mxCell id="JzDECzEAMPXhw-EZGh1U-83" value="call event handler" style="text;html=1;strokeColor=none;fillColor=none;align=center;verticalAlign=middle;whiteSpace=wrap;rounded=0;fontStyle=0;fontColor=#000000;" vertex="1" parent="1">
          <mxGeometry x="680" y="1120" width="120" height="30" as="geometry" />
        </mxCell>
        <mxCell id="JzDECzEAMPXhw-EZGh1U-85" value="" style="group" vertex="1" connectable="0" parent="1">
          <mxGeometry x="280" y="680" width="120" height="120" as="geometry" />
        </mxCell>
        <mxCell id="JzDECzEAMPXhw-EZGh1U-35" value="&lt;div style=&quot;background-color: rgb(255, 255, 255); color: rgb(8, 8, 8); font-size: 12px;&quot;&gt;1. create DeltaFIFO&lt;/div&gt;" style="html=1;whiteSpace=wrap;fontFamily=Comic Sans MS;align=left;fontSize=12;" vertex="1" parent="JzDECzEAMPXhw-EZGh1U-85">
          <mxGeometry width="120" height="30" as="geometry" />
        </mxCell>
        <mxCell id="JzDECzEAMPXhw-EZGh1U-36" value="&lt;div style=&quot;background-color: rgb(255, 255, 255); color: rgb(8, 8, 8); font-size: 12px;&quot;&gt;2. create controller&lt;/div&gt;" style="html=1;whiteSpace=wrap;fontFamily=Comic Sans MS;align=left;fontSize=12;" vertex="1" parent="JzDECzEAMPXhw-EZGh1U-85">
          <mxGeometry y="30" width="120" height="30" as="geometry" />
        </mxCell>
        <mxCell id="JzDECzEAMPXhw-EZGh1U-37" value="&lt;div style=&quot;background-color: rgb(255, 255, 255); color: rgb(8, 8, 8); font-size: 12px;&quot;&gt;3. processor run&lt;/div&gt;" style="html=1;whiteSpace=wrap;fontFamily=Comic Sans MS;align=left;fontSize=12;" vertex="1" parent="JzDECzEAMPXhw-EZGh1U-85">
          <mxGeometry y="60" width="120" height="30" as="geometry" />
        </mxCell>
        <mxCell id="JzDECzEAMPXhw-EZGh1U-38" value="&lt;div style=&quot;background-color: rgb(255, 255, 255); color: rgb(8, 8, 8); font-size: 12px;&quot;&gt;4. controller run&lt;/div&gt;" style="html=1;whiteSpace=wrap;fontFamily=Comic Sans MS;align=left;fontSize=12;" vertex="1" parent="JzDECzEAMPXhw-EZGh1U-85">
          <mxGeometry y="90" width="120" height="30" as="geometry" />
        </mxCell>
        <mxCell id="JzDECzEAMPXhw-EZGh1U-86" value="informer run" style="text;html=1;strokeColor=none;fillColor=none;align=center;verticalAlign=middle;whiteSpace=wrap;rounded=0;fontStyle=0;fontColor=#000000;" vertex="1" parent="1">
          <mxGeometry x="180" y="670" width="90" height="30" as="geometry" />
        </mxCell>
      </root>
    </mxGraphModel>
  </diagram>
</mxfile>
